<svg width="776" height="776" viewBox="0 0 776 776" fill="none" xmlns="http://www.w3.org/2000/svg">
<path d="M387.921 99.734C259.375 99.734 155.209 203.901 155.209 332.447C155.209 421.653 205.076 498.67 278.768 538.01L343.595 398.936H432.247L497.075 538.01C570.767 498.67 620.634 421.653 620.634 332.447C620.634 203.901 516.467 99.734 387.921 99.734Z" fill="#D4E3EE"/>
<path d="M548.604 648.271C536.414 634.973 465.492 624.446 385.151 624.446C304.81 624.446 238.874 634.419 226.685 647.717L341.379 401.152C356.339 405.585 369.637 407.801 385.151 407.801C400.665 407.801 419.504 405.585 434.464 401.152L548.604 648.271Z" fill="white"/>
<path d="M227.239 651.042C226.685 651.042 226.685 651.042 226.131 651.042C224.468 650.487 223.914 648.825 225.022 647.163L341.379 397.828C341.933 396.72 343.595 395.612 345.257 396.72C346.919 397.274 347.474 398.936 346.365 400.598L230.009 649.933C229.455 650.487 228.347 651.042 227.239 651.042Z" fill="#231F20"/>
<path d="M548.604 651.042C547.496 651.042 546.388 650.487 545.833 649.379L429.477 400.044C428.923 398.382 429.477 397.274 430.585 396.166C432.247 395.612 433.356 396.166 434.464 397.274L550.82 646.609C551.374 648.271 550.82 649.379 549.712 650.487C549.158 651.042 549.158 651.042 548.604 651.042Z" fill="#231F20"/>
<path d="M498.737 360.151C468.263 389.517 427.815 404.477 387.921 404.477C348.028 404.477 307.58 389.517 277.106 360.151H498.737Z" fill="white"/>
<path d="M387.921 675.975C476.664 675.975 548.604 663.572 548.604 648.271C548.604 632.971 476.664 620.567 387.921 620.567C299.179 620.567 227.239 632.971 227.239 648.271C227.239 663.572 299.179 675.975 387.921 675.975Z" fill="white"/>
<path d="M387.921 678.745C306.472 678.745 224.468 668.218 224.468 648.271C224.468 628.324 306.472 617.797 387.921 617.797C469.371 617.797 551.374 628.324 551.374 648.271C551.374 668.218 469.371 678.745 387.921 678.745ZM387.921 623.338C289.849 623.338 230.009 637.744 230.009 648.271C230.009 658.799 289.849 673.205 387.921 673.205C485.993 673.205 545.833 658.799 545.833 648.271C545.833 637.744 485.993 623.338 387.921 623.338Z" fill="#231F20"/>
<path d="M346.919 506.981H346.365C344.703 506.427 344.149 505.319 344.149 503.657L365.758 403.923C366.312 402.261 367.42 401.706 369.083 401.706C370.745 402.261 371.299 403.369 371.299 405.031L349.69 504.765C349.136 505.873 348.028 506.981 346.919 506.981Z" fill="#231F20"/>
<path d="M334.73 562.389H334.176C332.513 561.835 331.959 560.727 331.959 559.065L341.379 514.738C341.933 513.076 343.041 512.522 344.703 512.522C346.365 513.076 346.919 514.184 346.919 515.846L337.5 560.173C337.5 561.281 336.392 562.389 334.73 562.389Z" fill="#231F20"/>
<path d="M441.113 562.389C440.005 562.389 438.896 561.281 438.342 560.173L428.923 515.846C428.369 514.184 429.477 513.076 431.139 512.522C432.802 512.522 433.91 513.076 434.464 514.738L443.883 559.065C444.437 560.727 443.329 561.835 441.667 562.389C441.113 562.389 441.113 562.389 441.113 562.389Z" fill="#231F20"/>
<path d="M428.923 506.981C427.815 506.981 426.707 505.873 426.153 504.765L404.544 405.031C403.99 403.369 405.098 402.261 406.76 401.706C408.422 401.706 409.53 402.261 410.084 403.923L431.693 503.657C432.247 505.319 431.139 506.427 429.477 506.981C429.477 506.981 429.477 506.981 428.923 506.981Z" fill="#231F20"/>
<path d="M621.742 360.151H154.1C145.789 360.151 138.586 353.502 138.586 344.636C138.586 337.433 143.573 331.339 150.776 329.676L304.81 293.661H471.033L625.067 329.676C632.27 331.339 637.256 337.433 637.256 344.636C637.256 353.502 630.607 360.151 621.742 360.151Z" fill="white"/>
<path d="M459.951 271.498H315.891V232.713C315.891 192.819 348.028 160.683 387.921 160.683C427.815 160.683 459.951 192.819 459.951 232.713V271.498Z" fill="#C7EAFB"/>
<path d="M459.951 277.039H315.891C312.567 277.039 310.35 274.823 310.35 271.498V232.713C310.35 190.049 345.257 155.142 387.921 155.142C430.585 155.142 465.492 190.049 465.492 232.713V271.498C465.492 274.823 463.276 277.039 459.951 277.039ZM321.432 265.957H454.411V232.713C454.411 196.144 424.49 166.223 387.921 166.223C351.352 166.223 321.432 196.144 321.432 232.713V265.957Z" fill="#231F20"/>
<path d="M349.136 196.144C348.582 196.144 347.474 195.589 346.919 195.589C345.811 194.481 345.811 192.819 346.919 191.711C358.001 181.183 372.407 175.089 387.921 175.089C389.583 175.089 390.692 176.197 390.692 177.859C390.692 179.521 389.583 180.629 387.921 180.629C374.069 180.629 360.771 186.17 350.798 195.589C350.798 195.589 349.69 196.144 349.136 196.144Z" fill="#231F20"/>
<path d="M335.284 218.861H334.73C333.068 218.307 332.514 216.644 333.068 215.536C334.176 212.766 334.73 209.996 336.392 207.779C336.946 206.671 338.608 205.563 340.271 206.671C341.379 207.225 342.487 208.887 341.379 210.55C340.271 212.766 339.162 215.536 338.608 217.753C337.5 218.307 336.392 218.861 335.284 218.861Z" fill="#231F20"/>
<path d="M471.033 293.661H304.81V282.58C304.81 276.485 309.796 271.498 315.891 271.498H459.951C466.046 271.498 471.033 276.485 471.033 282.58V293.661Z" fill="white"/>
<path d="M526.441 227.172C526.441 230.496 524.224 232.713 520.9 232.713C517.575 232.713 515.359 230.496 515.359 227.172C515.359 223.847 517.575 221.631 520.9 221.631C524.224 221.631 526.441 223.847 526.441 227.172Z" fill="#231F20"/>
<path d="M526.441 263.187C526.441 264.849 525.333 265.957 523.67 265.957C522.008 265.957 520.9 264.849 520.9 263.187C520.9 261.525 522.008 260.417 523.67 260.417C525.333 260.417 526.441 261.525 526.441 263.187Z" fill="#231F20"/>
<path d="M565.226 213.32C565.226 214.982 564.118 216.09 562.456 216.09C560.794 216.09 559.685 214.982 559.685 213.32C559.685 211.658 560.794 210.55 562.456 210.55C564.118 210.55 565.226 211.658 565.226 213.32Z" fill="#231F20"/>
<path d="M216.157 285.35C216.157 287.012 215.049 288.121 213.387 288.121C211.725 288.121 210.616 287.012 210.616 285.35C210.616 283.688 211.725 282.58 213.387 282.58C215.049 282.58 216.157 283.688 216.157 285.35Z" fill="#231F20"/>
<path d="M526.441 163.453C526.441 165.115 525.333 166.223 523.67 166.223C522.008 166.223 520.9 165.115 520.9 163.453C520.9 161.791 522.008 160.683 523.67 160.683C525.333 160.683 526.441 161.791 526.441 163.453Z" fill="#231F20"/>
<path d="M277.106 191.157C277.106 192.819 275.998 193.927 274.335 193.927C272.673 193.927 271.565 192.819 271.565 191.157C271.565 189.495 272.673 188.386 274.335 188.386C275.998 188.386 277.106 189.495 277.106 191.157Z" fill="#231F20"/>
<path d="M343.595 124.668C343.595 126.33 342.487 127.438 340.825 127.438C339.162 127.438 338.054 126.33 338.054 124.668C338.054 123.005 339.162 121.897 340.825 121.897C342.487 121.897 343.595 123.005 343.595 124.668Z" fill="#231F20"/>
<path d="M227.239 191.157C227.239 192.819 226.131 193.927 224.468 193.927C222.806 193.927 221.698 192.819 221.698 191.157C221.698 189.495 222.806 188.386 224.468 188.386C226.131 188.386 227.239 189.495 227.239 191.157Z" fill="#231F20"/>
<path d="M249.402 263.187C249.402 264.849 248.294 265.957 246.631 265.957C244.969 265.957 243.861 264.849 243.861 263.187C243.861 261.525 244.969 260.417 246.631 260.417C248.294 260.417 249.402 261.525 249.402 263.187Z" fill="#231F20"/>
<path d="M454.411 144.06C454.411 147.385 452.194 149.601 448.87 149.601C445.545 149.601 443.329 147.385 443.329 144.06C443.329 140.736 445.545 138.519 448.87 138.519C452.194 138.519 454.411 140.736 454.411 144.06Z" fill="#231F20"/>
<path d="M243.861 227.172C243.861 230.496 241.645 232.713 238.32 232.713C234.996 232.713 232.779 230.496 232.779 227.172C232.779 223.847 234.996 221.631 238.32 221.631C241.645 221.631 243.861 223.847 243.861 227.172Z" fill="#231F20"/>
<path d="M459.951 265.957H315.891C306.472 265.957 299.269 273.16 299.269 282.58V293.661C299.269 296.986 301.485 299.202 304.81 299.202H471.033C474.357 299.202 476.574 296.986 476.574 293.661V282.58C476.574 273.16 469.371 265.957 459.951 265.957ZM346.365 277.039H362.988V288.12H346.365V277.039ZM340.825 288.12H324.202V277.039H340.825V288.12ZM368.529 277.039H385.151V288.12H368.529V277.039ZM390.692 277.039H407.314V288.12H390.692V277.039ZM412.855 277.039H429.477V288.12H412.855V277.039ZM435.018 277.039H451.64V288.12H435.018V277.039ZM310.35 282.58C310.35 279.255 312.567 277.039 315.891 277.039H318.662V288.12H310.35V282.58ZM465.492 288.12H457.181V277.039H459.951C463.276 277.039 465.492 279.255 465.492 282.58V288.12Z" fill="#231F20"/>
<path d="M421.166 271.498H354.677V232.713C354.677 214.428 369.637 199.468 387.921 199.468C406.206 199.468 421.166 214.428 421.166 232.713V271.498Z" fill="#BBD868"/>
<path d="M421.166 277.039H354.677C351.352 277.039 349.136 274.823 349.136 271.498V232.713C349.136 211.104 366.312 193.927 387.921 193.927C409.53 193.927 426.707 211.104 426.707 232.713V271.498C426.707 274.823 424.49 277.039 421.166 277.039ZM360.217 265.957H415.625V232.713C415.625 217.199 403.435 205.009 387.921 205.009C372.407 205.009 360.217 217.199 360.217 232.713V265.957Z" fill="#231F20"/>
<path d="M387.921 249.335C397.102 249.335 404.544 241.893 404.544 232.713C404.544 223.532 397.102 216.09 387.921 216.09C378.741 216.09 371.299 223.532 371.299 232.713C371.299 241.893 378.741 249.335 387.921 249.335Z" fill="white"/>
<path d="M387.921 252.105C377.394 252.105 368.529 243.24 368.529 232.713C368.529 222.185 377.394 213.32 387.921 213.32C398.449 213.32 407.314 222.185 407.314 232.713C407.314 243.24 398.449 252.105 387.921 252.105ZM387.921 218.861C380.164 218.861 374.069 224.956 374.069 232.713C374.069 240.47 380.164 246.565 387.921 246.565C395.678 246.565 401.773 240.47 401.773 232.713C401.773 224.956 395.678 218.861 387.921 218.861Z" fill="#231F20"/>
<path d="M393.462 238.253C393.462 241.578 391.246 243.794 387.921 243.794C384.597 243.794 382.38 241.578 382.38 238.253C382.38 234.929 384.597 232.713 387.921 232.713C391.246 232.713 393.462 234.929 393.462 238.253Z" fill="#231F20"/>
<path d="M626.729 324.136L472.141 288.12C471.587 288.12 471.033 288.12 471.033 288.12H304.81C304.255 288.12 303.701 288.12 303.701 288.12L149.668 324.136C140.248 326.352 133.6 334.663 133.6 344.636C133.6 356.272 143.019 365.691 154.654 365.691H622.296C633.932 365.691 643.351 356.272 643.351 344.636C642.797 334.663 636.148 326.352 626.729 324.136ZM151.884 335.217L305.364 299.202H470.479L623.958 335.217C627.283 335.771 629.499 337.987 630.607 340.758H625.067C623.958 339.096 622.296 337.987 620.634 337.987C618.418 337.987 616.755 339.096 616.201 340.758H586.835C585.727 339.096 584.065 337.987 582.403 337.987C580.186 337.987 578.524 339.096 577.97 340.758H548.604C546.942 339.096 545.279 337.987 543.063 337.987C540.847 337.987 539.185 339.096 538.63 340.758H509.264C508.156 339.096 506.494 337.987 504.278 337.987C502.061 337.987 500.399 339.096 499.845 340.758H470.479C469.371 339.096 467.708 337.987 465.492 337.987C463.276 337.987 461.614 339.096 461.06 340.758H431.693C430.585 339.096 428.923 337.987 426.707 337.987C424.49 337.987 422.828 339.096 422.274 340.758H392.908C391.8 339.096 390.138 337.987 387.921 337.987C385.705 337.987 384.043 339.096 383.489 340.758H354.123C353.014 339.096 351.352 337.987 349.136 337.987C346.92 337.987 345.257 339.096 344.703 340.758H315.337C314.229 339.096 312.567 337.987 310.35 337.987C308.134 337.987 306.472 339.096 305.918 340.758H276.552C275.443 339.096 273.781 337.987 271.565 337.987C269.349 337.987 267.686 339.096 267.132 340.758H237.766C236.658 339.096 234.996 337.987 232.779 337.987C230.563 337.987 228.901 339.096 228.347 340.758H198.981C197.873 339.096 196.21 337.987 193.994 337.987C191.778 337.987 190.115 339.096 189.561 340.758H160.195C159.087 339.096 157.425 337.987 155.209 337.987C152.992 337.987 151.33 339.096 150.776 340.758H145.235C146.343 337.987 148.56 335.771 151.884 335.217ZM621.742 354.61H154.1C149.114 354.61 145.235 350.731 144.127 346.299H150.222C151.33 347.961 152.992 349.069 154.654 349.069C156.871 349.069 158.533 347.961 159.087 346.299H188.453C189.561 347.961 191.224 349.069 192.886 349.069C194.548 349.069 196.764 347.961 197.318 346.299H226.685C227.793 347.961 229.455 349.069 231.117 349.069C232.779 349.069 234.996 347.961 235.55 346.299H264.916C266.024 347.961 267.686 349.069 269.349 349.069C271.011 349.069 273.227 347.961 273.781 346.299H303.147C304.256 347.961 305.918 349.069 307.58 349.069C309.242 349.069 311.458 347.961 312.013 346.299H341.379C342.487 347.961 344.149 349.069 345.811 349.069C347.474 349.069 349.69 347.961 350.244 346.299H379.61C380.718 347.961 382.381 349.069 384.043 349.069C386.259 349.069 387.921 347.961 388.475 346.299H417.841C418.95 347.961 420.612 349.069 422.274 349.069C424.49 349.069 426.153 347.961 426.707 346.299H456.073C457.181 347.961 458.843 349.069 460.505 349.069C462.722 349.069 464.384 347.961 464.938 346.299H494.304C495.412 347.961 497.075 349.069 498.737 349.069C500.953 349.069 502.615 347.961 503.169 346.299H532.536C533.644 347.961 535.306 349.069 536.968 349.069C539.185 349.069 540.847 347.961 541.401 346.299H570.767C571.875 347.961 573.537 349.069 575.2 349.069C577.416 349.069 579.078 347.961 579.632 346.299H608.998C610.107 347.961 611.769 349.069 613.431 349.069C615.647 349.069 617.31 347.961 617.864 346.299H623.958C630.607 350.731 626.729 354.61 621.742 354.61Z" fill="#231F20"/>
<path d="M648.338 651.042H565.226C563.564 651.042 562.456 649.933 562.456 648.271C562.456 646.609 563.564 645.501 565.226 645.501H648.338C650 645.501 651.108 646.609 651.108 648.271C651.108 649.933 650 651.042 648.338 651.042Z" fill="#231F20"/>
<path d="M210.616 651.042H127.505C125.842 651.042 124.734 649.933 124.734 648.271C124.734 646.609 125.842 645.501 127.505 645.501H210.616C212.279 645.501 213.387 646.609 213.387 648.271C213.387 649.933 212.279 651.042 210.616 651.042Z" fill="#231F20"/>
<path d="M609.552 293.661C618.733 293.661 626.175 286.219 626.175 277.039C626.175 267.859 618.733 260.417 609.552 260.417C600.372 260.417 592.93 267.859 592.93 277.039C592.93 286.219 600.372 293.661 609.552 293.661Z" fill="white"/>
<path d="M609.552 296.432C607.89 296.432 606.782 295.324 606.782 293.661C606.782 285.904 600.687 279.809 592.93 279.809C591.268 279.809 590.16 278.701 590.16 277.039C590.16 275.377 591.268 274.269 592.93 274.269C600.687 274.269 606.782 268.174 606.782 260.417C606.782 258.754 607.89 257.646 609.552 257.646C611.215 257.646 612.323 258.754 612.323 260.417C612.323 268.174 618.418 274.269 626.175 274.269C627.837 274.269 628.945 275.377 628.945 277.039C628.945 278.701 627.837 279.809 626.175 279.809C618.418 279.809 612.323 285.904 612.323 293.661C612.323 295.324 611.215 296.432 609.552 296.432ZM602.903 277.039C605.674 278.701 607.89 280.918 609.552 283.688C611.215 280.918 613.431 278.701 616.201 277.039C613.431 275.377 611.215 273.16 609.552 270.39C607.89 273.16 605.674 275.377 602.903 277.039Z" fill="#231F20"/>
<path d="M199.535 265.957C202.595 265.957 205.076 263.477 205.076 260.417C205.076 257.357 202.595 254.876 199.535 254.876C196.475 254.876 193.994 257.357 193.994 260.417C193.994 263.477 196.475 265.957 199.535 265.957Z" fill="white"/>
<path d="M199.535 268.728C197.873 268.728 196.764 267.62 196.764 265.957C196.764 264.295 195.656 263.187 193.994 263.187C192.332 263.187 191.224 262.079 191.224 260.417C191.224 258.754 192.332 257.646 193.994 257.646C195.656 257.646 196.764 256.538 196.764 254.876C196.764 253.214 197.873 252.105 199.535 252.105C201.197 252.105 202.305 253.214 202.305 254.876C202.305 256.538 203.413 257.646 205.076 257.646C206.738 257.646 207.846 258.754 207.846 260.417C207.846 262.079 206.738 263.187 205.076 263.187C203.413 263.187 202.305 264.295 202.305 265.957C202.305 267.62 201.197 268.728 199.535 268.728Z" fill="#231F20"/>
<path d="M493.196 177.305C496.256 177.305 498.737 174.824 498.737 171.764C498.737 168.704 496.256 166.223 493.196 166.223C490.136 166.223 487.655 168.704 487.655 171.764C487.655 174.824 490.136 177.305 493.196 177.305Z" fill="white"/>
<path d="M493.196 180.075C491.534 180.075 490.426 178.967 490.426 177.305C490.426 175.643 489.317 174.535 487.655 174.535C485.993 174.535 484.885 173.426 484.885 171.764C484.885 170.102 485.993 168.994 487.655 168.994C489.317 168.994 490.426 167.886 490.426 166.223C490.426 164.561 491.534 163.453 493.196 163.453C494.858 163.453 495.966 164.561 495.966 166.223C495.966 167.886 497.075 168.994 498.737 168.994C500.399 168.994 501.507 170.102 501.507 171.764C501.507 173.426 500.399 174.535 498.737 174.535C497.075 174.535 495.966 175.643 495.966 177.305C495.966 178.967 494.858 180.075 493.196 180.075Z" fill="#231F20"/>
<path d="M559.685 249.335C562.745 249.335 565.226 246.854 565.226 243.794C565.226 240.734 562.745 238.253 559.685 238.253C556.625 238.253 554.145 240.734 554.145 243.794C554.145 246.854 556.625 249.335 559.685 249.335Z" fill="white"/>
<path d="M559.685 252.105C558.023 252.105 556.915 250.997 556.915 249.335C556.915 247.673 555.807 246.565 554.145 246.565C552.482 246.565 551.374 245.456 551.374 243.794C551.374 242.132 552.482 241.024 554.145 241.024C555.807 241.024 556.915 239.916 556.915 238.253C556.915 236.591 558.023 235.483 559.685 235.483C561.348 235.483 562.456 236.591 562.456 238.253C562.456 239.916 563.564 241.024 565.226 241.024C566.888 241.024 567.997 242.132 567.997 243.794C567.997 245.456 566.888 246.565 565.226 246.565C563.564 246.565 562.456 247.673 562.456 249.335C562.456 250.997 561.348 252.105 559.685 252.105Z" fill="#231F20"/>
<path d="M260.483 160.683C269.664 160.683 277.106 153.241 277.106 144.06C277.106 134.88 269.664 127.438 260.483 127.438C251.303 127.438 243.861 134.88 243.861 144.06C243.861 153.241 251.303 160.683 260.483 160.683Z" fill="white"/>
<path d="M260.483 163.453C258.821 163.453 257.713 162.345 257.713 160.683C257.713 152.926 251.618 146.831 243.861 146.831C242.199 146.831 241.091 145.722 241.091 144.06C241.091 142.398 242.199 141.29 243.861 141.29C251.618 141.29 257.713 135.195 257.713 127.438C257.713 125.776 258.821 124.668 260.483 124.668C262.146 124.668 263.254 125.776 263.254 127.438C263.254 135.195 269.349 141.29 277.106 141.29C278.768 141.29 279.876 142.398 279.876 144.06C279.876 145.722 278.768 146.831 277.106 146.831C269.349 146.831 263.254 152.926 263.254 160.683C263.254 162.345 262.146 163.453 260.483 163.453ZM253.834 144.06C256.605 145.722 258.821 147.939 260.483 150.709C262.146 147.939 264.362 145.722 267.132 144.06C264.362 142.398 262.146 140.182 260.483 137.411C258.821 140.182 256.605 142.398 253.834 144.06Z" fill="#231F20"/>
<path d="M503.724 357.934C503.169 355.718 500.953 354.61 498.737 354.61H277.106C274.889 354.61 272.673 355.718 272.119 357.934C271.011 360.151 271.565 362.367 273.227 364.029C303.701 393.949 344.703 410.018 387.921 410.018C431.139 410.018 472.141 393.949 502.615 364.029C504.278 362.367 504.832 360.151 503.724 357.934ZM337.5 390.625H438.342C422.274 396.166 405.098 398.936 387.921 398.936C370.191 398.936 353.568 396.166 337.5 390.625ZM452.194 385.084H323.648C312.567 380.097 301.485 373.448 292.066 365.691H484.331C474.357 373.448 463.83 380.097 452.194 385.084Z" fill="#231F20"/>
</svg>
