<svg width="18" height="18" viewBox="0 0 18 18" fill="none" xmlns="http://www.w3.org/2000/svg">
    <path
        d="M16.6445 1.93604H13.728C13.6696 1.93604 13.6136 1.95924 13.5723 2.00054C13.531 2.04185 13.5078 2.09786 13.5078 2.15628C13.5078 2.19381 13.5196 2.22739 13.5359 2.258V3.93598C13.536 3.99747 13.5239 4.05838 13.5004 4.1152C13.4769 4.17203 13.4424 4.22366 13.3989 4.26714C13.3555 4.31063 13.3038 4.34511 13.247 4.36861C13.1902 4.39211 13.1293 4.40418 13.0678 4.40411H12.1601C12.1031 4.40411 12.0466 4.39287 11.9938 4.37103C11.9411 4.3492 11.8932 4.31719 11.8529 4.27683C11.8125 4.23648 11.7805 4.18858 11.7587 4.13585C11.7368 4.08313 11.7256 4.02662 11.7256 3.96956V2.28516C11.7547 2.24842 11.771 2.20315 11.772 2.15628C11.7721 2.12734 11.7664 2.09867 11.7554 2.07192C11.7443 2.04517 11.7281 2.02086 11.7076 2.0004C11.6872 1.97993 11.6629 1.96371 11.6361 1.95267C11.6094 1.94162 11.5807 1.93597 11.5518 1.93604H5.67292C5.61451 1.93604 5.55849 1.95924 5.51719 2.00054C5.47588 2.04185 5.45268 2.09786 5.45268 2.15628C5.45268 2.19035 5.46206 2.22146 5.47589 2.25059V3.94783C5.47589 4.00781 5.46408 4.06721 5.44112 4.12263C5.41817 4.17805 5.38452 4.2284 5.3421 4.27082C5.29969 4.31323 5.24933 4.34688 5.19391 4.36984C5.1385 4.39279 5.0791 4.40461 5.01911 4.40461H4.21321C4.09089 4.40461 3.97357 4.35601 3.88708 4.26952C3.80058 4.18302 3.75199 4.06571 3.75199 3.94338V2.26294C3.7716 2.23076 3.78233 2.19395 3.7831 2.15628C3.78316 2.12734 3.77751 2.09867 3.76647 2.07192C3.75542 2.04517 3.7392 2.02086 3.71874 2.0004C3.69827 1.97993 3.67397 1.96371 3.64722 1.95267C3.62047 1.94162 3.5918 1.93597 3.56286 1.93604H0.489862C0.360068 1.93617 0.23562 1.98775 0.143796 2.07948C0.0519713 2.17121 0.000261353 2.29561 0 2.4254V17.0097C0 17.2803 0.219747 17.5 0.489862 17.5H16.6445C16.7743 17.4998 16.8988 17.448 16.9905 17.3561C17.0823 17.2641 17.1338 17.1396 17.1338 17.0097V2.4254C17.1336 2.2957 17.0819 2.17137 16.9902 2.07966C16.8985 1.98794 16.7742 1.9363 16.6445 1.93604ZM16.6445 17.0595H0.489862C0.483336 17.0595 0.476874 17.0583 0.47085 17.0557C0.464826 17.0532 0.459361 17.0495 0.454769 17.0449C0.450177 17.0403 0.44655 17.0348 0.444097 17.0287C0.441645 17.0227 0.440416 17.0162 0.440481 17.0097V6.01098H16.6933V17.0092C16.6935 17.0157 16.6923 17.0222 16.6899 17.0283C16.6875 17.0343 16.684 17.0399 16.6794 17.0446C16.6749 17.0492 16.6694 17.053 16.6634 17.0556C16.6574 17.0581 16.651 17.0595 16.6445 17.0595Z"
        fill="black" />
    <path
        d="M4.67337 3.90237C4.79484 3.90237 4.89361 3.80361 4.89361 3.68213V0.720241C4.89361 0.691318 4.88791 0.662679 4.87684 0.635958C4.86577 0.609237 4.84955 0.584958 4.8291 0.564507C4.80865 0.544056 4.78437 0.527833 4.75765 0.516765C4.73093 0.505697 4.70229 0.5 4.67337 0.5C4.64444 0.5 4.6158 0.505697 4.58908 0.516765C4.56236 0.527833 4.53808 0.544056 4.51763 0.564507C4.49718 0.584958 4.48096 0.609237 4.46989 0.635958C4.45882 0.662679 4.45312 0.691318 4.45313 0.720241V3.68262C4.45313 3.8041 4.55189 3.90237 4.67337 3.90237ZM12.6504 3.90237C12.7719 3.90237 12.8707 3.80361 12.8707 3.68213V0.720241C12.8707 0.691318 12.865 0.662679 12.8539 0.635958C12.8428 0.609237 12.8266 0.584958 12.8061 0.564507C12.7857 0.544056 12.7614 0.527833 12.7347 0.516765C12.708 0.505697 12.6793 0.5 12.6504 0.5C12.6215 0.5 12.5929 0.505697 12.5661 0.516765C12.5394 0.527833 12.5151 0.544056 12.4947 0.564507C12.4742 0.584958 12.458 0.609237 12.4469 0.635958C12.4359 0.662679 12.4302 0.691318 12.4302 0.720241V3.68262C12.4302 3.8041 12.5284 3.90237 12.6504 3.90237Z"
        fill="black" />
    <path
        d="M3.53508 9.34268C4.20544 9.34268 4.74887 8.79925 4.74887 8.12889C4.74887 7.45853 4.20544 6.9151 3.53508 6.9151C2.86472 6.9151 2.32129 7.45853 2.32129 8.12889C2.32129 8.79925 2.86472 9.34268 3.53508 9.34268Z"
        fill="black" />
    <path
        d="M7.02361 9.34268C7.69397 9.34268 8.2374 8.79925 8.2374 8.12889C8.2374 7.45853 7.69397 6.9151 7.02361 6.9151C6.35325 6.9151 5.80981 7.45853 5.80981 8.12889C5.80981 8.79925 6.35325 9.34268 7.02361 9.34268Z"
        fill="black" />
    <path
        d="M10.5114 9.34268C11.1818 9.34268 11.7252 8.79925 11.7252 8.12889C11.7252 7.45853 11.1818 6.9151 10.5114 6.9151C9.84104 6.9151 9.29761 7.45853 9.29761 8.12889C9.29761 8.79925 9.84104 9.34268 10.5114 9.34268Z"
        fill="black" />
    <path
        d="M3.53508 12.7229C4.20544 12.7229 4.74887 12.1794 4.74887 11.5091C4.74887 10.8387 4.20544 10.2953 3.53508 10.2953C2.86472 10.2953 2.32129 10.8387 2.32129 11.5091C2.32129 12.1794 2.86472 12.7229 3.53508 12.7229Z"
        fill="black" />
    <path
        d="M7.02361 12.7229C7.69397 12.7229 8.2374 12.1794 8.2374 11.5091C8.2374 10.8387 7.69397 10.2953 7.02361 10.2953C6.35325 10.2953 5.80981 10.8387 5.80981 11.5091C5.80981 12.1794 6.35325 12.7229 7.02361 12.7229Z"
        fill="black" />
    <path
        d="M10.5114 12.7229C11.1818 12.7229 11.7252 12.1794 11.7252 11.5091C11.7252 10.8387 11.1818 10.2953 10.5114 10.2953C9.84104 10.2953 9.29761 10.8387 9.29761 11.5091C9.29761 12.1794 9.84104 12.7229 10.5114 12.7229Z"
        fill="black" />
    <path
        d="M3.53508 16.103C4.20544 16.103 4.74887 15.5596 4.74887 14.8892C4.74887 14.2188 4.20544 13.6754 3.53508 13.6754C2.86472 13.6754 2.32129 14.2188 2.32129 14.8892C2.32129 15.5596 2.86472 16.103 3.53508 16.103Z"
        fill="black" />
    <path
        d="M7.02361 16.103C7.69397 16.103 8.2374 15.5596 8.2374 14.8892C8.2374 14.2188 7.69397 13.6754 7.02361 13.6754C6.35325 13.6754 5.80981 14.2188 5.80981 14.8892C5.80981 15.5596 6.35325 16.103 7.02361 16.103Z"
        fill="black" />
    <path
        d="M10.5114 16.103C11.1818 16.103 11.7252 15.5596 11.7252 14.8892C11.7252 14.2188 11.1818 13.6754 10.5114 13.6754C9.84104 13.6754 9.29761 14.2188 9.29761 14.8892C9.29761 15.5596 9.84104 16.103 10.5114 16.103Z"
        fill="black" />
    <path
        d="M13.9176 9.34268C14.588 9.34268 15.1314 8.79925 15.1314 8.12889C15.1314 7.45853 14.588 6.9151 13.9176 6.9151C13.2473 6.9151 12.7039 7.45853 12.7039 8.12889C12.7039 8.79925 13.2473 9.34268 13.9176 9.34268Z"
        fill="black" />
    <path
        d="M13.9176 12.7229C14.588 12.7229 15.1314 12.1794 15.1314 11.5091C15.1314 10.8387 14.588 10.2953 13.9176 10.2953C13.2473 10.2953 12.7039 10.8387 12.7039 11.5091C12.7039 12.1794 13.2473 12.7229 13.9176 12.7229Z"
        fill="black" />
    <path
        d="M13.9176 16.103C14.588 16.103 15.1314 15.5596 15.1314 14.8892C15.1314 14.2188 14.588 13.6754 13.9176 13.6754C13.2473 13.6754 12.7039 14.2188 12.7039 14.8892C12.7039 15.5596 13.2473 16.103 13.9176 16.103Z"
        fill="black" />
</svg>
    