<svg width="401" height="300" viewBox="0 0 401 300" fill="none" xmlns="http://www.w3.org/2000/svg">
<path d="M27.7241 300.001H91.344V145.495L0.458496 77.3311V272.735C0.458496 287.822 12.6826 300.001 27.7241 300.001Z" fill="#4285F4"/>
<path d="M309.469 300.001H373.089C388.176 300.001 400.355 287.776 400.355 272.735V77.3311L309.469 145.495" fill="#34A853"/>
<path d="M309.469 27.343V145.494L400.355 77.33V40.9758C400.355 7.2573 361.865 -11.965 334.917 8.25704" fill="#FBBC04"/>
<path d="M91.3447 145.495V27.3438L200.407 109.141L309.47 27.3438V145.495L200.407 227.292" fill="#EA4335"/>
<path d="M0.458496 40.9758V77.33L91.344 145.494V27.343L65.8961 8.25704C38.9031 -11.965 0.458496 7.2573 0.458496 40.9758Z" fill="#C5221F"/>
</svg>
