<svg width="20" height="20" viewBox="0 0 48 48" fill="none" xmlns="http://www.w3.org/2000/svg">
    <path
        d="M36.7632 33.6564C34.139 36.5165 30.8124 39.9255 26.7802 43.8851C26.7799 43.8854 26.7796 43.8857 26.7793 43.886L24 46.6018L21.2207 43.886C21.2204 43.8857 21.2201 43.8854 21.2198 43.8851C17.1876 39.9255 13.861 36.5165 11.2368 33.6564C8.61731 30.8013 6.55079 28.2566 5.02632 26.0199C3.5015 23.7827 2.46356 21.7657 1.88153 19.9649C1.29348 18.1455 1 16.2874 1 14.3869C1 10.5122 2.1835 7.3391 4.51685 4.79595C6.84558 2.25783 9.71736 1 13.2 1C15.1196 1 16.9441 1.44104 18.6856 2.32946C20.4291 3.219 21.9369 4.47389 23.2114 6.10816L24 7.11928L24.7885 6.10816C26.0631 4.47389 27.5709 3.219 29.3145 2.32946C31.0559 1.44104 32.8804 1 34.8 1C38.2826 1 41.1544 2.25783 43.4832 4.79595C45.8165 7.3391 47 10.5122 47 14.3869C47 16.2874 46.7065 18.1455 46.1185 19.9649C45.5364 21.7657 44.4985 23.7827 42.9737 26.0199C41.4492 28.2566 39.3827 30.8013 36.7632 33.6564Z"
        stroke="#333333" strokeWidth="2" />
</svg>