<svg xmlns="http://www.w3.org/2000/svg" width="50" height="50" viewBox="0 0 59 59" fill="none">
    <path
        d="M29.5 0C23.6655 0 17.9619 1.73014 13.1107 4.97164C8.25944 8.21315 4.47835 12.8204 2.24557 18.2108C0.0127819 23.6013 -0.571416 29.5327 0.566847 35.2552C1.70511 40.9776 4.51471 46.234 8.64036 50.3596C12.766 54.4853 18.0224 57.2949 23.7448 58.4332C29.4673 59.5714 35.3987 58.9872 40.7892 56.7544C46.1796 54.5216 50.7868 50.7406 54.0284 45.8893C57.2699 41.0381 59 35.3345 59 29.5C59 25.626 58.237 21.7899 56.7544 18.2108C55.2719 14.6317 53.099 11.3797 50.3596 8.64035C47.6203 5.90102 44.3683 3.72807 40.7892 2.24555C37.2101 0.76304 33.374 0 29.5 0ZM23.6 42.775V16.225L41.3 29.5L23.6 42.775Z"
        fill="white" />
</svg>