<svg width="139" height="175" viewBox="0 0 139 175" fill="none" xmlns="http://www.w3.org/2000/svg">
<path d="M118.333 81.3333C123.741 63.3727 127.075 32.6667 104.333 11.6667C86.9533 -4.38266 40 -6 23.6667 29C20.94 34.8427 24.6667 44 32 43.6667C34.882 43.5333 36.6666 52.6667 38.3333 58.3333C36 81.3333 15.212 81.758 4.66665 99.3333C-8.33335 121 7.66665 153 46 153C84.3333 153 106.308 121.27 118.333 81.3333Z" fill="url(#paint0_linear_302_500)"/>
<path d="M131.333 133.667C136.222 143 138.667 177 138.667 177H1.33331C1.33331 177 3.77798 143 8.66665 133.667C16 119.667 70 101.667 70 101.667C70 101.667 124 119.667 131.333 133.667Z" fill="url(#paint1_linear_302_500)"/>
<path d="M86 109.667C86 109.667 77.4894 114.333 69.66 114.333C61.8307 114.333 54 109.667 54 109.667V95C52.3157 95.2662 50.6094 95.3676 48.9054 95.3027C32.9134 95.3013 26.8834 72.0073 30 43.6667C32 43.6667 36.6667 43.6667 43.3334 34.3333C41.6667 47.3333 61 45.3333 68.3334 35C64.6667 47.3333 74.3334 55.6667 82.6667 50.6667C99.0074 40.862 102.681 70.7507 86 71V109.667Z" fill="url(#paint2_linear_302_500)"/>
<path d="M54 95C62.2699 93.4775 70.1831 90.4252 77.3333 86C77.3333 86 69 100.333 54 100.333V95Z" fill="#FFB597"/>
<path d="M70.0219 113.65C74.8399 113.432 85.9999 111.072 85.9999 105.973V101.667C87.2226 101.667 90.7232 104.555 92.5239 107C99.6412 116.667 91.7466 125.333 85.3079 125.333C77.1839 125.333 71.7999 118.545 69.9999 115.28C68.1999 118.547 62.8159 125.333 54.6919 125.333C48.2533 125.333 40.3586 116.667 47.4759 107C49.2766 104.555 52.7773 101.667 53.9999 101.667V105.973C53.9999 111.072 65.4613 113.432 70.0219 113.65Z" fill="white"/>
<defs>
<linearGradient id="paint0_linear_302_500" x1="61.2547" y1="153" x2="61.2547" y2="0.725586" gradientUnits="userSpaceOnUse">
<stop stop-color="#E6864E"/>
<stop offset="1" stop-color="#E67240"/>
</linearGradient>
<linearGradient id="paint1_linear_302_500" x1="70" y1="177" x2="70" y2="101.667" gradientUnits="userSpaceOnUse">
<stop stop-color="#FFC9B3"/>
<stop offset="1" stop-color="#FFD2C2"/>
</linearGradient>
<linearGradient id="paint2_linear_302_500" x1="63.0311" y1="34.3333" x2="63.0311" y2="114.333" gradientUnits="userSpaceOnUse">
<stop stop-color="#FFD4B3"/>
<stop offset="1" stop-color="#FFDCC2"/>
</linearGradient>
</defs>
</svg>
