<svg width="313" height="160" viewBox="0 0 313 160" fill="none" xmlns="http://www.w3.org/2000/svg">
<g clip-path="url(#clip0_0_364)">
<path d="M96.2435 144.516C96.2435 136.052 122.875 129.102 155.701 129.102C188.526 129.102 215.158 136.052 215.158 144.585C215.146 145.551 214.834 146.489 214.263 147.269C209.309 154.495 184.948 160 155.701 160C122.875 160 96.2435 153.05 96.2435 144.516Z" fill="#CEEDA2"/>
<path d="M84.409 133.987H27.154C25.6867 133.991 24.2608 134.474 23.0938 135.364L1.07264 152.637C0.844472 152.811 0.676536 153.053 0.592244 153.328C0.507951 153.603 0.511502 153.897 0.6024 154.17C0.693299 154.442 0.867016 154.68 1.09934 154.849C1.33166 155.018 1.611 155.111 1.89843 155.114H62.3879C63.9223 155.099 65.3954 154.51 66.5168 153.462L85.0284 135.57C85.1632 135.446 85.2574 135.283 85.2985 135.104C85.3396 134.926 85.3259 134.738 85.259 134.567C85.1921 134.396 85.0752 134.25 84.9235 134.146C84.7719 134.043 84.5926 133.987 84.409 133.987Z" fill="#CEEDA2"/>
<path d="M311.57 133.987H254.246C252.779 133.991 251.353 134.474 250.186 135.364L228.165 152.637C227.937 152.811 227.769 153.053 227.684 153.328C227.6 153.603 227.604 153.897 227.694 154.17C227.785 154.442 227.959 154.68 228.191 154.849C228.424 155.018 228.703 155.111 228.99 155.114H289.48C291.014 155.099 292.487 154.51 293.609 153.462L312.12 135.57C312.267 135.457 312.375 135.301 312.428 135.123C312.481 134.945 312.477 134.755 312.416 134.58C312.355 134.405 312.241 134.254 312.089 134.147C311.937 134.041 311.755 133.985 311.57 133.987Z" fill="#CEEDA2"/>
<path d="M96.2431 141.695C96.2431 133.231 122.875 126.28 155.7 126.28C188.526 126.28 215.157 133.231 215.157 141.764C215.146 142.73 214.833 143.668 214.263 144.448C209.308 151.673 184.947 157.179 155.7 157.179C122.875 157.179 96.2431 150.228 96.2431 141.695Z" fill="#8AC732"/>
<path d="M214.263 144.448C209.308 151.673 185.016 157.179 155.7 157.179C122.875 157.179 96.2431 150.228 96.2431 141.695C96.2431 141.695 106.566 154.151 153.636 154.151C194.1 154.22 210.409 146.581 214.263 144.448Z" fill="#4D662A"/>
<path d="M189.558 138.117C187.287 135.639 172.974 133.712 155.701 133.712C137.671 133.712 122.944 135.777 121.637 138.392C122.256 136.878 126.385 131.648 155.701 131.648C182.677 131.648 188.389 136.327 189.558 138.117Z" fill="#4D662A"/>
<path d="M84.8897 133.988L72.8468 47.8297C72.7804 47.386 72.5557 46.9813 72.2141 46.6904C71.8726 46.3995 71.4374 46.2419 70.9888 46.2469H54.7482C54.4806 46.2485 54.2164 46.307 53.9732 46.4186C53.7299 46.5302 53.5132 46.6922 53.3375 46.894C53.1617 47.0958 53.0309 47.3327 52.9538 47.5889C52.8767 47.8452 52.855 48.1149 52.8901 48.3802L56.9503 80.9303C56.9896 81.2326 56.9637 81.5399 56.8743 81.8314C56.7848 82.1229 56.634 82.3918 56.4318 82.62C56.2296 82.8483 55.9809 83.0306 55.7023 83.1545C55.4238 83.2785 55.1219 83.3414 54.817 83.3388H36.2366C35.6749 83.3424 35.1333 83.1302 34.7235 82.7461C34.3138 82.3619 34.0671 81.8351 34.0345 81.2743L32.5205 48.1049C32.4971 47.6261 32.2917 47.1743 31.9464 46.8418C31.6011 46.5093 31.1419 46.3211 30.6625 46.3157H15.4541C15.2029 46.3107 14.9532 46.3576 14.721 46.4535C14.4887 46.5495 14.2787 46.6924 14.1043 46.8733C13.9298 47.0542 13.7946 47.2693 13.7072 47.5049C13.6197 47.7405 13.5819 47.9916 13.5961 48.2426L15.6606 104.947C15.7023 105.815 16.0751 106.634 16.7023 107.236C17.3295 107.838 18.1635 108.176 19.0326 108.181H60.3911L63.6255 134.125H84.8897V133.988Z" fill="#4D662A"/>
<path d="M312.052 133.987L300.009 47.8296C299.943 47.3859 299.718 46.9812 299.377 46.6903C299.035 46.3994 298.6 46.2418 298.151 46.2468H281.911C281.643 46.2484 281.379 46.3069 281.136 46.4185C280.892 46.5301 280.676 46.6921 280.5 46.8939C280.324 47.0957 280.193 47.3326 280.116 47.5888C280.039 47.8451 280.017 48.1148 280.053 48.3801L284.113 80.9301C284.152 81.2325 284.126 81.5398 284.037 81.8313C283.947 82.1228 283.796 82.3917 283.594 82.6199C283.392 82.8482 283.143 83.0304 282.865 83.1544C282.586 83.2784 282.284 83.3413 281.979 83.3387H263.399C262.837 83.3423 262.296 83.1301 261.886 82.746C261.476 82.3618 261.23 81.835 261.197 81.2742L259.683 48.1048C259.659 47.626 259.454 47.1742 259.109 46.8417C258.764 46.5092 258.304 46.321 257.825 46.3156H242.685C242.434 46.3106 242.184 46.3575 241.952 46.4534C241.72 46.5494 241.51 46.6923 241.336 46.8732C241.161 47.0541 241.026 47.2692 240.938 47.5048C240.851 47.7404 240.813 47.9915 240.827 48.2425L242.892 104.947C242.934 105.815 243.306 106.634 243.934 107.236C244.561 107.837 245.395 108.176 246.264 108.181H287.622L290.857 134.125H312.052V133.987Z" fill="#4D662A"/>
<path d="M72.3653 48.7242L63.2816 151.673C63.2056 152.608 62.7816 153.48 62.0935 154.117C61.4054 154.754 60.5033 155.11 59.5655 155.114H45.9399C45.4099 155.114 44.886 155.002 44.4027 154.784C43.9195 154.566 43.488 154.249 43.1367 153.852C42.7854 153.455 42.5224 152.988 42.365 152.482C42.2076 151.976 42.1595 151.442 42.2238 150.916L47.9356 102.676L7.12755 103.364C6.60036 103.373 6.07771 103.265 5.59712 103.048C5.11653 102.832 4.6899 102.511 4.34784 102.11C4.00578 101.708 3.75677 101.236 3.61867 100.728C3.48058 100.219 3.45682 99.6856 3.54911 99.1664L3.68674 98.2718L13.0457 48.1048C13.1719 47.4298 13.5297 46.8198 14.0573 46.3802C14.5848 45.9405 15.2493 45.6987 15.936 45.6963H28.9423C29.3682 45.7033 29.7877 45.8018 30.1723 45.9849C30.5569 46.1681 30.8978 46.4316 31.1718 46.7578C31.4458 47.084 31.6466 47.4652 31.7606 47.8757C31.8746 48.2861 31.8991 48.7163 31.8326 49.1371L26.2585 80.7925C26.2057 81.0913 26.2198 81.398 26.2998 81.6907C26.3798 81.9833 26.5238 82.2546 26.7212 82.4849C26.9186 82.7153 27.1647 82.899 27.4417 83.0228C27.7186 83.1467 28.0196 83.2075 28.3229 83.2011H47.7979L52.3398 48.036C52.4351 47.3719 52.7652 46.7638 53.2701 46.322C53.7751 45.8802 54.4215 45.6338 55.0924 45.6274H69.6127C69.9969 45.6496 70.3729 45.7474 70.7193 45.9151C71.0657 46.0829 71.3756 46.3172 71.6313 46.6049C71.8869 46.8925 72.0834 47.2278 72.2093 47.5914C72.3353 47.9551 72.3883 48.34 72.3653 48.7242Z" fill="#8AC732"/>
<path d="M48.2109 98.2718L47.8668 102.676L7.05881 103.364C6.53162 103.373 6.00897 103.265 5.52838 103.048C5.04779 102.832 4.62115 102.511 4.27909 102.11C3.93704 101.708 3.68803 101.236 3.54993 100.728C3.41184 100.219 3.38808 99.6855 3.48037 99.1664L3.618 98.2718H48.2109Z" fill="#4D662A"/>
<path d="M72.3652 48.7242L63.2815 151.673C63.2055 152.608 62.7815 153.48 62.0934 154.117C61.4053 154.754 60.5032 155.11 59.5654 155.114H57.5009L68.305 45.6962H69.6125C69.9951 45.7052 70.3718 45.7918 70.7198 45.9507C71.0679 46.1096 71.3801 46.3375 71.6375 46.6206C71.8948 46.9037 72.092 47.2361 72.2171 47.5977C72.3422 47.9593 72.3926 48.3425 72.3652 48.7242Z" fill="#4D662A"/>
<path d="M26.1908 80.8613C26.138 81.1601 26.1521 81.4668 26.2322 81.7595C26.3122 82.0521 26.4561 82.3234 26.6535 82.5537C26.851 82.7841 27.097 82.9678 27.374 83.0916C27.651 83.2154 27.9519 83.2763 28.2553 83.2699H24.2639C23.9196 83.2721 23.5789 83.1989 23.2659 83.0554C22.9529 82.9119 22.6751 82.7016 22.4521 82.4392C22.2291 82.1768 22.0662 81.8688 21.975 81.5367C21.8838 81.2047 21.8665 80.8567 21.9242 80.5172L28.0488 45.765H28.9434C29.3694 45.7721 29.7888 45.8706 30.1735 46.0537C30.5581 46.2368 30.8989 46.5004 31.1729 46.8266C31.4469 47.1528 31.6477 47.534 31.7617 47.9445C31.8757 48.3549 31.9002 48.7851 31.8337 49.2059L26.1908 80.8613Z" fill="#4D662A"/>
<path d="M299.455 48.7242L290.371 151.673C290.295 152.608 289.871 153.48 289.183 154.117C288.495 154.754 287.593 155.11 286.655 155.114H273.03C272.5 155.114 271.976 155.002 271.492 154.784C271.009 154.566 270.578 154.249 270.226 153.852C269.875 153.455 269.612 152.988 269.455 152.482C269.297 151.976 269.249 151.442 269.314 150.916L275.025 102.676L234.217 103.364C233.69 103.373 233.167 103.265 232.687 103.048C232.206 102.832 231.78 102.511 231.438 102.11C231.096 101.708 230.846 101.236 230.708 100.728C230.57 100.219 230.547 99.6856 230.639 99.1665L230.776 98.2719L240.135 48.1049C240.262 47.4298 240.619 46.8199 241.147 46.3802C241.675 45.9406 242.339 45.6987 243.026 45.6963H256.032C256.458 45.7034 256.877 45.8018 257.262 45.985C257.647 46.1681 257.987 46.4317 258.261 46.7579C258.535 47.0841 258.736 47.4653 258.85 47.8757C258.964 48.2862 258.989 48.7164 258.922 49.1371L253.348 80.7926C253.295 81.0913 253.31 81.3981 253.39 81.6907C253.47 81.9834 253.613 82.2546 253.811 82.485C254.008 82.7153 254.254 82.899 254.531 83.0229C254.808 83.1467 255.109 83.2076 255.413 83.2011H274.888L279.43 48.0361C279.525 47.3719 279.855 46.7639 280.36 46.3221C280.865 45.8802 281.511 45.6338 282.182 45.6275H296.702C297.091 45.6376 297.473 45.7272 297.825 45.8909C298.177 46.0546 298.492 46.2888 298.75 46.5791C299.008 46.8694 299.204 47.2095 299.325 47.5785C299.446 47.9475 299.491 48.3375 299.455 48.7242Z" fill="#8AC732"/>
<path d="M275.369 98.2719L275.025 102.676L234.217 103.364C233.69 103.373 233.167 103.265 232.687 103.048C232.206 102.832 231.78 102.511 231.438 102.11C231.095 101.708 230.846 101.236 230.708 100.728C230.57 100.219 230.547 99.6856 230.639 99.1665L230.776 98.2719H275.369Z" fill="#4D662A"/>
<path d="M299.456 48.7243L290.372 151.673C290.296 152.608 289.872 153.48 289.184 154.117C288.496 154.754 287.594 155.11 286.656 155.114H284.592L295.396 45.6963H296.703C297.089 45.6932 297.472 45.7716 297.826 45.9265C298.18 46.0813 298.497 46.309 298.757 46.5948C299.016 46.8806 299.213 47.218 299.333 47.5849C299.454 47.9519 299.496 48.3401 299.456 48.7243Z" fill="#4D662A"/>
<path d="M253.348 80.8614C253.295 81.1601 253.309 81.4669 253.389 81.7595C253.469 82.0522 253.613 82.3234 253.81 82.5538C254.008 82.7841 254.254 82.9678 254.531 83.0917C254.808 83.2155 255.109 83.2764 255.412 83.2699H251.421C251.076 83.2722 250.736 83.199 250.423 83.0555C250.11 82.912 249.832 82.7016 249.609 82.4393C249.386 82.1769 249.223 81.8689 249.132 81.5368C249.041 81.2048 249.023 80.8568 249.081 80.5173L255.206 45.7651H256.1C256.526 45.7722 256.946 45.8706 257.33 46.0538C257.715 46.2369 258.056 46.5005 258.33 46.8267C258.604 47.1529 258.805 47.5341 258.919 47.9445C259.033 48.355 259.057 48.7851 258.991 49.2059L253.348 80.8614Z" fill="#4D662A"/>
<path opacity="0.28" d="M128.52 69.711L114.413 141.28C113.656 145.134 116.133 148.781 119.505 148.781H194.239C197.543 148.781 200.02 145.271 199.401 141.555L187.839 69.9863C187.358 67.096 185.224 65.0315 182.678 65.0315H133.681C131.204 64.9627 129.07 66.9584 128.52 69.711Z" fill="#8AC732"/>
<path d="M192.245 74.1862L199.058 96.8267C199.084 96.9411 199.136 97.0481 199.209 97.1403C199.282 97.2324 199.374 97.3074 199.479 97.3599C199.584 97.4125 199.7 97.4413 199.817 97.4443C199.934 97.4472 200.051 97.4244 200.159 97.3773C200.344 97.3052 200.496 97.1666 200.585 96.9885C200.674 96.8104 200.694 96.6056 200.64 96.4138L196.167 73.2228C196.097 72.9303 195.963 72.6565 195.777 72.4201C195.591 72.1837 195.356 71.9903 195.088 71.8531C194.82 71.7159 194.526 71.6382 194.225 71.6251C193.925 71.6121 193.625 71.6641 193.346 71.7776C192.903 71.9786 192.547 72.3331 192.344 72.7758C192.142 73.2185 192.107 73.7195 192.245 74.1862Z" fill="#FEC272"/>
<path d="M179.376 82.3746L183.78 99.8539C183.796 99.9274 183.827 99.9968 183.871 100.058C183.914 100.119 183.97 100.171 184.035 100.209C184.099 100.248 184.171 100.273 184.246 100.283C184.32 100.293 184.396 100.287 184.468 100.267C184.532 100.25 184.592 100.22 184.644 100.179C184.696 100.139 184.74 100.088 184.772 100.03C184.804 99.9725 184.824 99.9088 184.831 99.843C184.838 99.7772 184.832 99.7107 184.812 99.6475L181.991 81.8241C181.956 81.6231 181.877 81.4324 181.759 81.2661C181.641 81.0998 181.487 80.962 181.309 80.863C181.131 80.7639 180.933 80.7061 180.729 80.6938C180.525 80.6815 180.322 80.715 180.133 80.7918C179.849 80.9345 179.621 81.1673 179.484 81.4538C179.347 81.7403 179.309 82.0642 179.376 82.3746Z" fill="#FEC272"/>
<path d="M121.983 76.3883L116.272 93.7988C116.251 93.8756 116.214 93.9469 116.162 94.0076C116.111 94.0683 116.047 94.1168 115.975 94.1497C115.902 94.1826 115.823 94.1991 115.744 94.1979C115.664 94.1967 115.586 94.1779 115.515 94.1429C115.386 94.0863 115.281 93.9865 115.219 93.8609C115.156 93.7352 115.139 93.5916 115.171 93.4547L119.3 75.6313C119.352 75.4346 119.446 75.2513 119.575 75.0935C119.703 74.9357 119.864 74.807 120.046 74.716C120.228 74.6249 120.428 74.5735 120.631 74.5653C120.835 74.557 121.038 74.592 121.226 74.6679C121.542 74.8113 121.794 75.0661 121.934 75.3835C122.073 75.7009 122.091 76.0587 121.983 76.3883Z" fill="#FEC272"/>
<path d="M133.338 81.7552L125.906 114.099C125.89 114.172 125.859 114.242 125.815 114.303C125.771 114.364 125.715 114.415 125.651 114.454C125.586 114.493 125.515 114.518 125.44 114.528C125.366 114.538 125.29 114.532 125.218 114.512C125.154 114.495 125.094 114.465 125.042 114.424C124.989 114.384 124.946 114.333 124.914 114.275C124.882 114.217 124.862 114.154 124.855 114.088C124.848 114.022 124.854 113.956 124.873 113.892L130.723 81.2047C130.757 81.0037 130.837 80.813 130.955 80.6467C131.073 80.4804 131.226 80.3426 131.405 80.2436C131.583 80.1446 131.781 80.0868 131.985 80.0744C132.188 80.0621 132.392 80.0956 132.581 80.1725C132.889 80.285 133.141 80.5137 133.282 80.8095C133.424 81.1053 133.444 81.4448 133.338 81.7552Z" fill="#FEC272"/>
<path d="M149.097 85.5381L145.519 109.004C145.509 109.081 145.482 109.155 145.44 109.219C145.398 109.284 145.341 109.339 145.275 109.378C145.209 109.418 145.134 109.442 145.057 109.449C144.98 109.456 144.903 109.445 144.831 109.417C144.702 109.375 144.592 109.291 144.517 109.179C144.442 109.067 144.407 108.933 144.418 108.798L146.345 85.1252C146.375 84.9275 146.447 84.7388 146.558 84.5721C146.668 84.4054 146.814 84.2647 146.984 84.1599C147.154 84.0551 147.345 83.9887 147.544 83.9652C147.742 83.9418 147.944 83.9619 148.134 84.0242C148.297 84.0602 148.451 84.1279 148.587 84.2235C148.724 84.3191 148.84 84.4407 148.93 84.5813C149.019 84.7219 149.08 84.8788 149.109 85.043C149.137 85.2072 149.134 85.3754 149.097 85.5381Z" fill="#FEC272"/>
<path d="M167.539 85.0591L168.434 122.289C168.433 122.367 168.415 122.443 168.383 122.514C168.351 122.585 168.304 122.648 168.245 122.7C168.187 122.752 168.119 122.791 168.045 122.815C167.971 122.839 167.892 122.847 167.815 122.839C167.684 122.816 167.565 122.749 167.477 122.649C167.389 122.549 167.339 122.422 167.333 122.289L164.787 85.0591C164.781 84.8587 164.82 84.6595 164.901 84.4758C164.981 84.2922 165.102 84.1287 165.253 83.9971C165.404 83.8655 165.583 83.7691 165.776 83.7148C165.969 83.6604 166.172 83.6495 166.37 83.6828C166.691 83.7471 166.981 83.9179 167.194 84.1677C167.406 84.4174 167.528 84.7315 167.539 85.0591Z" fill="#FEC272"/>
<path d="M96.0387 51.2704C95.3457 50.4583 94.7669 49.5554 94.3183 48.5866L92.7355 37.9889L96.3828 41.3609L96.0387 51.2704Z" fill="#4D662A"/>
<path d="M198.712 54.849C196.781 58.5163 194.349 61.8977 191.487 64.8961C185.293 71.5025 174.833 79.0035 159.281 79.0035C148.339 79.0035 140.219 75.3562 134.438 70.952C128.997 66.8365 124.65 61.4489 121.776 55.2619L198.712 54.849Z" fill="#4D662A"/>
<path d="M198.712 54.849C196.781 58.5163 194.349 61.8977 191.487 64.8961C185.05 67.306 178.352 68.946 171.53 69.7821C155.565 71.9154 143.109 71.7778 134.438 70.952C128.997 66.8365 124.65 61.4489 121.776 55.2619L198.712 54.849Z" fill="#072359"/>
<path d="M222.936 37.5761C222.567 40.8484 221.969 44.0907 221.147 47.2792C220.913 48.1582 220.542 48.9944 220.046 49.7566C218.601 52.0964 215.848 54.6426 211.375 57.0511C210.618 57.464 209.723 57.8769 208.829 58.2898C208.141 58.6339 207.452 58.9092 206.695 59.2532C205.663 59.6661 204.631 60.079 203.53 60.4919C199.032 62.024 194.433 63.2426 189.767 64.1392C189.354 64.208 189.01 64.2768 188.597 64.3456C187.564 64.5521 186.326 64.6897 185.018 64.8274C179.513 65.4467 172.218 65.8596 164.442 65.9972C162.997 65.9972 161.552 66.066 160.107 66.066C152.743 66.1349 145.311 65.9284 138.843 65.5843C137.466 65.5155 136.09 65.4467 134.851 65.3091C131.665 65.1067 128.494 64.7161 125.355 64.1392C121.845 63.451 118.679 62.694 115.858 61.8683C114.688 61.5242 113.587 61.1801 112.486 60.836C103.953 58.0145 98.7916 54.5737 96.1078 51.4082C95.7204 50.9836 95.3747 50.5227 95.0755 50.0319C94.7931 49.6261 94.5619 49.1869 94.3873 48.7244C94.1662 48.2891 94.0041 47.8262 93.9056 47.348C93.3185 44.9925 92.8818 42.6021 92.5981 40.1912C92.3229 37.9202 92.254 36.4063 92.254 36.4063L157.629 41.2922L223.005 37.645L222.936 37.5761Z" fill="#CEEDA2"/>
<path d="M222.867 37.4385C222.749 38.1435 222.412 38.7934 221.904 39.2965C220.183 41.2922 216.054 44.2513 209.035 46.9351C208.141 47.2792 207.177 47.6233 206.145 47.9674C205.663 48.105 205.181 48.3115 204.7 48.4491C203.667 48.7932 202.566 49.1373 201.397 49.4125C196.899 50.673 192.325 51.6385 187.702 52.3028C186.463 52.5093 185.156 52.7157 183.78 52.8533C177.318 53.6717 170.817 54.1312 164.305 54.2297C162.928 54.2297 161.483 54.2985 160.038 54.2985H159.969C152.606 54.2985 145.793 53.9544 139.668 53.4039C138.292 53.2662 136.916 53.1286 135.608 52.991C129.586 52.3279 123.611 51.2937 117.716 49.8942C116.546 49.619 115.376 49.2749 114.275 48.9996C104.022 46.1782 97.2776 42.6685 94.1809 39.7783C93.6394 39.2831 93.1547 38.7291 92.7358 38.1267C92.3608 37.6286 92.145 37.029 92.1164 36.4063C92.1164 31.5203 111.385 21.1291 160.313 21.1291C209.242 21.0603 222.867 34.0665 222.867 37.4385Z" fill="#4D662A"/>
<path d="M132.099 26.7032L96.3145 41.3611C94.949 40.4107 93.7216 39.276 92.6673 37.9891L130.929 26.0839L132.099 26.7032Z" fill="#072359"/>
<path d="M222.868 37.5073C222.73 38.1857 222.395 38.8082 221.904 39.2965L185.156 26.7031L186.326 26.1526L222.868 37.5073Z" fill="#072359"/>
<path d="M138.154 30.4881L117.716 49.8254C116.546 49.5502 115.376 49.2061 114.275 48.9308L136.916 30.4193L138.154 30.4881Z" fill="#072359"/>
<path d="M149.372 32.759L139.669 53.4039C138.292 53.2663 136.916 53.1286 135.609 52.991L148.133 32.6902L149.372 32.759Z" fill="#072359"/>
<path d="M187.771 52.3716C186.532 52.5781 185.156 52.7845 183.848 52.9221L174.352 32.759L175.659 32.6902L187.771 52.3716Z" fill="#072359"/>
<path d="M164.304 54.2985C162.928 54.2985 161.483 54.3673 160.038 54.3673H159.969L161.62 34.0665L162.928 33.9977L164.304 54.2985Z" fill="#072359"/>
<path d="M208.966 46.9351C208.072 47.2792 207.108 47.6233 206.076 47.9674L181.371 30.4881L182.679 30.4193L208.966 46.9351Z" fill="#072359"/>
<path d="M164.374 65.8596C162.929 65.8596 161.483 65.9284 160.038 65.9284V54.2985L164.305 54.2297L164.374 65.8596Z" fill="#4D662A"/>
<path d="M188.459 64.208C187.358 64.4145 186.188 64.5521 184.881 64.6897L183.78 52.8533L187.702 52.3028L188.459 64.208Z" fill="#4D662A"/>
<path d="M211.306 56.9823C210.549 57.3952 209.654 57.8081 208.76 58.221L206.145 47.8986L208.966 46.9352L211.306 56.9823Z" fill="#4D662A"/>
<path d="M139.668 53.4039L138.842 65.4467C137.466 65.3779 136.09 65.3091 134.851 65.1714L135.677 52.991L139.668 53.4039Z" fill="#4D662A"/>
<path d="M117.716 49.8254L115.789 61.7306C114.619 61.3865 113.518 61.0425 112.417 60.6984L114.206 48.9308L117.716 49.8254Z" fill="#4D662A"/>
<path d="M96.3827 41.4986L95.0064 49.963C94.724 49.5572 94.4928 49.1181 94.3183 48.6555C94.0971 48.2202 93.9351 47.7574 93.8365 47.2792C93.2494 44.9237 92.8127 42.5332 92.529 40.1223L92.7355 38.0578C92.7355 38.0578 93.9054 39.4341 94.3871 39.9158C94.8 40.3287 96.3827 41.4986 96.3827 41.4986Z" fill="#4D662A"/>
<path d="M157.078 42.2555C177.336 42.2555 193.757 37.6032 193.757 31.8643C193.757 26.1253 177.336 21.473 157.078 21.473C136.821 21.473 120.399 26.1253 120.399 31.8643C120.399 37.6032 136.821 42.2555 157.078 42.2555Z" fill="#072359"/>
<path d="M190.592 30.2127C190.592 30.2127 187.909 33.2406 181.302 35.8557C176.416 37.7825 169.397 39.4341 159.763 39.4341C155.146 39.4646 150.537 39.0497 146 38.1954C133.131 35.718 127.557 30.3504 127.557 30.3504C127.557 30.3504 130.378 9.43023 147.995 2.34217C152.071 0.74537 156.418 -0.0490967 160.795 0.00241465C185.018 0.00241465 190.592 30.2127 190.592 30.2127Z" fill="#CEEDA2"/>
<path d="M146 38.1954C133.131 35.718 127.557 30.3504 127.557 30.3504C127.557 30.3504 130.378 9.43023 147.995 2.34216C144.554 5.23244 141.182 11.013 140.632 20.4408C140.081 27.4601 141.733 33.3094 146 38.1954Z" fill="#CEEDA2"/>
<path d="M190.592 30.2127C190.592 30.2127 187.909 33.2406 181.302 35.8556C180.613 33.3624 179.739 30.9241 178.687 28.5611C178.687 28.5611 172.218 29.9375 169.328 23.8128C166.438 17.6882 173.388 13.2839 173.388 13.2839C173.388 13.2839 171.737 7.98509 163.204 4.54428C154.67 1.10347 147.858 2.34216 147.858 2.34216C151.934 0.74537 156.28 -0.0490967 160.657 0.00241465C185.018 0.00241465 190.592 30.2127 190.592 30.2127Z" fill="#CEEDA2"/>
<path d="M162.859 17.2753C163.885 17.2753 164.717 16.4742 164.717 15.4861C164.717 14.4979 163.885 13.6969 162.859 13.6969C161.833 13.6969 161.001 14.4979 161.001 15.4861C161.001 16.4742 161.833 17.2753 162.859 17.2753Z" fill="#CEEDA2"/>
<path d="M156.391 18.9957C157.189 18.9957 157.836 18.3795 157.836 17.6194C157.836 16.8592 157.189 16.243 156.391 16.243C155.593 16.243 154.946 16.8592 154.946 17.6194C154.946 18.3795 155.593 18.9957 156.391 18.9957Z" fill="#CEEDA2"/>
<path d="M160.726 28.2858C162.284 28.2858 163.547 27.0534 163.547 25.5332C163.547 24.013 162.284 22.7805 160.726 22.7805C159.168 22.7805 157.904 24.013 157.904 25.5332C157.904 27.0534 159.168 28.2858 160.726 28.2858Z" fill="#CEEDA2"/>
</g>
<defs>
<clipPath id="clip0_0_364">
<rect width="311.935" height="160" fill="white" transform="translate(0.532486)"/>
</clipPath>
</defs>
</svg>
