<svg width="20" height="20" viewBox="0 0 48 48" fill="none" xmlns="http://www.w3.org/2000/svg">
    <path
        d="M24 48L20.52 44.5995C16.48 40.6322 13.14 37.2098 10.5 34.3324C7.86 31.455 5.76 28.8719 4.2 26.5831C2.64 24.2943 1.55 22.1907 0.93 20.2725C0.31 18.3542 0 16.3924 0 14.3869C0 10.2888 1.26 6.86649 3.78 4.11989C6.3 1.3733 9.44 3.8147e-06 13.2 3.8147e-06C15.28 3.8147e-06 17.26 0.479568 19.14 1.4387C21.02 2.39782 22.64 3.74932 24 5.49319C25.36 3.74932 26.98 2.39782 28.86 1.4387C30.74 0.479568 32.72 3.8147e-06 34.8 3.8147e-06C38.56 3.8147e-06 41.7 1.3733 44.22 4.11989C46.74 6.86649 48 10.2888 48 14.3869C48 16.3924 47.69 18.3542 47.07 20.2725C46.45 22.1907 45.36 24.2943 43.8 26.5831C42.24 28.8719 40.14 31.455 37.5 34.3324C34.86 37.2098 31.52 40.6322 27.48 44.5995L24 48Z"
        fill="#FF0000" />
</svg>