<svg width="14" height="14" viewBox="0 0 14 14" fill="none" xmlns="http://www.w3.org/2000/svg">
    <path fill-rule="evenodd" clip-rule="evenodd"
        d="M6.64988 0.349976C6.78249 0.349976 6.90967 0.402654 7.00343 0.496422C7.0972 0.59019 7.14988 0.717367 7.14988 0.849976V3.02198C7.14988 3.15458 7.0972 3.28176 7.00343 3.37553C6.90967 3.4693 6.78249 3.52198 6.64988 3.52198C6.51727 3.52198 6.3901 3.4693 6.29633 3.37553C6.20256 3.28176 6.14988 3.15458 6.14988 3.02198V1.37198C4.88909 1.48409 3.70247 2.01631 2.78026 2.88332C1.85806 3.75032 1.2537 4.90188 1.06408 6.15336C0.87446 7.40484 1.11057 8.68374 1.73454 9.78502C2.35852 10.8863 3.33422 11.7462 4.50521 12.2267C5.6762 12.7073 6.97464 12.7807 8.19235 12.4353C9.41005 12.0898 10.4765 11.3455 11.2207 10.3216C11.9649 9.29769 12.3437 8.05356 12.2964 6.78868C12.2491 5.52381 11.7784 4.31144 10.9599 3.34598C10.9153 3.29625 10.8811 3.23808 10.8593 3.17491C10.8375 3.11175 10.8287 3.04486 10.8332 2.9782C10.8377 2.91154 10.8555 2.84647 10.8856 2.78682C10.9157 2.72717 10.9575 2.67416 11.0084 2.63092C11.0593 2.58767 11.1184 2.55508 11.1822 2.53505C11.2459 2.51502 11.313 2.50797 11.3795 2.51432C11.446 2.52066 11.5106 2.54027 11.5694 2.57199C11.6282 2.6037 11.68 2.64688 11.7219 2.69898C12.7018 3.85452 13.2577 5.31004 13.2977 6.82461C13.3376 8.33918 12.8592 9.82198 11.9416 11.0276C11.024 12.2332 9.72217 13.0893 8.25167 13.4542C6.78118 13.8191 5.23016 13.671 3.85535 13.0342C2.48054 12.3975 1.36437 11.3104 0.691592 9.9529C0.018815 8.59538 -0.17023 7.04881 0.15575 5.5692C0.48173 4.08958 1.30319 2.76565 2.48416 1.81652C3.66512 0.867401 5.13479 0.350004 6.64988 0.349976ZM7.40988 7.57998L9.92588 4.07298C9.95938 4.02483 9.97489 3.96645 9.96969 3.90803C9.96449 3.84961 9.93892 3.79488 9.89745 3.75341C9.85598 3.71194 9.80125 3.68637 9.74283 3.68117C9.68441 3.67597 9.62602 3.69148 9.57788 3.72498L6.06888 6.23998C5.95598 6.32126 5.86209 6.42611 5.79372 6.54727C5.72535 6.66844 5.68413 6.80301 5.67292 6.94167C5.6617 7.08034 5.68076 7.21979 5.72877 7.35036C5.77678 7.48094 5.8526 7.59951 5.95097 7.69789C6.04934 7.79626 6.16792 7.87207 6.29849 7.92008C6.42907 7.9681 6.56851 7.98715 6.70718 7.97594C6.84585 7.96472 6.98042 7.9235 7.10158 7.85513C7.22274 7.78676 7.3276 7.69288 7.40888 7.57998H7.40988Z"
        fill="black" />
</svg>
    